PathFileType	4	(X/Y/Z)	G:\Shared drives\HPL_Drive\Pi-Spi Study\20230118_AMCsubject1\Trimmed_left_flex_18001_rotated.trc
DataRate	CameraRate	NumFrames	NumMarkers	Units	OrigDataRate	OrigDataStartFrame	OrigNumFrames
200.00	200.00	       7	35	mm	200.00	101	       200
Frame#	Time	C7			Sternum			r_AMC1			r_AMC2			r_AMC3			l_AMC1			l_AMC2			l_AMC3			PX			T8			r_humerous			r_elbow_medial			r_elbow_lateral			r_forearm			r_wrist_radius			r_wrist_ulna			r_MCP_1			r_MCP_3			l_humerous			l_elbow_medial			l_elbow_lateral			l_forearm			l_wrist_radius			l_wrist_ulna			l_MCP_1			l_MCP_3			r_ASIS			r_PSIS			l_ASIS			l_PSIS			r_IC			l_IC			TS			AI			AA			
		X1	Y1	Z1	X2	Y2	Z2	X3	Y3	Z3	X4	Y4	Z4	X5	Y5	Z5	X6	Y6	Z6	X7	Y7	Z7	X8	Y8	Z8	X9	Y9	Z9	X10	Y10	Z10	X11	Y11	Z11	X12	Y12	Z12	X13	Y13	Z13	X14	Y14	Z14	X15	Y15	Z15	X16	Y16	Z16	X17	Y17	Z17	X18	Y18	Z18	X19	Y19	Z19	X20	Y20	Z20	X21	Y21	Z21	X22	Y22	Z22	X23	Y23	Z23	X24	Y24	Z24	X25	Y25	Z25	X26	Y26	Z26	X27	Y27	Z27	X28	Y28	Z28	X29	Y29	Z29	X30	Y30	Z30	X31	Y31	Z31	X32	Y32	Z32	X33	Y33	Z33	X34	Y34	Z34	X35	Y35	Z35	

101	0.5	196.0338	1368.3624	-235.3176	332.6109	1325.3257	-204.9329	178.7195	1318.2611	-78.1776	208.8638	1321.9491	-37.7027	229.535	1358.2242	-56.1888	203.0129	1341.587	-359.1797	237.8302	1376.5041	-373.0202	225.9969	1397.3235	-326.1181	406.5025	1134.7642	-198.9056	175.3353	1189.9264	-239.6992	293.6605	1142.5032	-12.2675	233.5957	997.5659	-42.8903	245.1294	1009.0373	22.0234	303.6958	856.4387	48.6479	356.1448	794.9595	31.9926	308.2645	786.3032	48.9594	380.7234	713.6716	46.8901	331.9112	708.5193	60.1327	316.7027	1476.2863	-352.6746	408.3791	1564.5526	-430.788	362.7688	1589.9088	-439.0174	385.2155	1749.2242	-440.303	395.6007	1822.4023	-423.0595	431.6721	1817.8392	-447.122	399.3875	1897.191	-431.8318	438.5674	1893.7793	-449.6253	373.1755	907.1317	-77.945	185.865	928.836	-163.6837	375.2417	894.5371	-336.3	187.4415	922.6467	-265.8893	292.2781	970.9623	-51.9787	290.5023	941.0801	-376.1544	139.6011	1290.6216	-334.6482	167.7529	1199.0617	-367.2392	198.3912	1352.958	-443.1355
102	0.505	196.0339	1368.3675	-235.2683	332.5834	1325.3093	-204.9126	178.6999	1318.2732	-78.1704	208.7212	1321.944	-37.4029	229.576	1358.2566	-56.2256	203.0307	1341.6044	-359.1905	237.8387	1376.4817	-373.0379	225.9937	1397.2997	-326.1293	406.495	1134.7457	-198.9032	175.3155	1189.934	-239.7079	293.6542	1142.5728	-12.224	233.6136	997.5983	-42.8304	245.1559	1009.0699	22.0905	303.7362	856.4175	48.7257	356.0257	795.1042	32.1887	308.2736	786.3777	49.1314	380.6248	713.7875	47.0669	331.9262	708.5447	60.2495	316.7755	1476.2269	-352.7111	408.3768	1564.545	-430.8191	362.7463	1589.9082	-439.0461	385.1948	1749.2022	-440.3834	395.5612	1822.398	-423.156	431.6485	1817.8779	-447.2393	399.3485	1897.1613	-431.9464	438.5323	1893.7696	-449.7419	373.2011	907.1585	-77.9045	185.8815	928.8647	-163.6781	375.2546	894.5213	-336.2831	187.4372	922.6457	-265.8666	292.2452	971.0097	-51.9513	290.6372	940.9971	-376.265	139.5513	1290.5	-334.5616	167.7901	1199.0466	-367.2563	198.3878	1352.9391	-443.1349
103	0.51	196.0173	1368.3429	-235.2935	332.6162	1325.3192	-204.9081	178.7305	1318.2803	-78.1747	208.9043	1321.9977	-37.7066	229.5479	1358.3365	-56.2381	203.0008	1341.557	-359.1793	237.8532	1376.481	-373.0508	226.0143	1397.2798	-326.1285	406.5316	1134.7465	-198.8878	175.3559	1189.9326	-239.6805	293.6637	1142.6232	-12.2021	233.6302	997.6099	-42.7987	245.1641	1009.0938	22.1197	303.7233	856.5055	48.7858	356.0434	795.0926	32.211	308.3621	786.3329	49.0993	380.6981	713.7665	47.0798	331.8551	708.7065	60.3731	316.7133	1476.2598	-352.7734	408.3442	1564.5269	-430.8544	362.7129	1589.8754	-439.0993	385.1729	1749.1826	-440.4753	395.5413	1822.381	-423.2634	431.6051	1817.8117	-447.3065	399.4103	1896.9861	-431.2825	438.5383	1893.9237	-449.7111	373.1548	907.1394	-77.8972	185.8614	928.8445	-163.6484	375.2883	894.5355	-336.2371	187.4469	922.6482	-265.8485	292.2906	970.9827	-51.8693	290.5483	941.0895	-376.1289	139.5511	1290.507	-334.6269	167.776	1199.0569	-367.2345	198.4164	1352.9047	-443.1624
104	0.515	196.0427	1368.353	-235.2856	332.64	1325.3361	-204.9498	178.7286	1318.2867	-78.1784	208.8708	1322.0178	-37.6751	229.5847	1358.3169	-56.2901	203.0197	1341.5552	-359.1997	237.845	1376.4578	-373.0635	225.9848	1397.2897	-326.1547	406.5042	1134.8009	-198.8308	175.3531	1189.9232	-239.6723	293.7112	1142.6008	-12.2041	233.6555	997.647	-42.7635	245.2204	1009.1651	22.1575	303.7254	856.5328	48.8589	356.1378	795.0922	32.2936	308.2393	786.5393	49.3312	380.7018	713.7606	47.1763	331.9343	708.6679	60.4993	316.6445	1476.3054	-352.7951	408.3196	1564.5878	-430.8743	362.7072	1589.884	-439.127	385.148	1749.1936	-440.5436	395.5272	1822.3954	-423.3336	431.5795	1817.826	-447.395	399.3324	1896.9729	-431.3985	438.5019	1893.9128	-449.8145	373.1408	907.1211	-77.8649	185.8636	928.8643	-163.6601	375.3016	894.5447	-336.2135	187.4688	922.6899	-265.8449	292.2601	971.088	-51.808	290.5546	941.095	-376.093	139.5552	1290.494	-334.6185	167.8212	1199.0481	-367.2306	198.4163	1352.8767	-443.1769
105	0.52	196.0497	1368.3583	-235.2843	332.6163	1325.3502	-204.9265	178.7282	1318.3049	-78.1897	208.8461	1322.1569	-37.7246	229.5637	1358.3488	-56.2558	203.0001	1341.5422	-359.1867	237.8674	1376.4387	-373.0821	225.9931	1397.276	-326.1699	406.5232	1134.7748	-198.8577	175.3944	1189.9294	-239.6738	293.6884	1142.6666	-12.1797	233.6752	997.6526	-42.7007	245.2299	1009.1764	22.2039	303.7266	856.5731	48.9195	356.0812	795.1386	32.387	308.4163	786.386	49.2555	380.6567	713.8669	47.3139	331.8585	708.7703	60.5924	316.7107	1476.2312	-352.8051	408.3276	1564.5236	-430.9155	362.6968	1589.8679	-439.1903	385.1179	1749.1533	-440.6183	395.4755	1822.4019	-423.418	431.5186	1817.827	-447.4832	399.3177	1896.9554	-431.5041	438.4768	1893.8934	-449.9095	373.1221	907.149	-77.8387	185.8635	928.8691	-163.6234	375.3156	894.539	-336.1829	187.46	922.656	-265.8156	292.2788	970.9592	-51.8535	290.548	941.1558	-376.0753	139.5723	1290.4852	-334.6211	167.8066	1199.0236	-367.1746	198.4279	1352.8262	-443.1827
106	0.525	196.0403	1368.3539	-235.3063	332.6074	1325.3457	-204.9264	178.7449	1318.314	-78.2018	208.9024	1322.0767	-37.713	229.5738	1358.4111	-56.3111	203.0219	1341.5291	-359.2119	237.8501	1376.4315	-373.0826	226.0008	1397.2938	-326.1793	406.5359	1134.7776	-198.8536	175.3802	1189.9125	-239.6517	293.6984	1142.6699	-12.1459	233.7034	997.6727	-42.678	245.2453	1009.2148	22.258	303.7317	856.5693	48.9999	356.1241	795.1546	32.4886	308.3501	786.434	49.3621	380.7889	713.7419	47.3124	331.8491	708.8407	60.7039	316.6003	1476.2908	-352.8685	408.2731	1564.5444	-430.9476	362.6636	1589.8755	-439.2039	385.0745	1749.1385	-440.6668	395.4578	1822.4041	-423.5251	431.5351	1817.7353	-447.5513	399.2951	1896.9491	-431.5817	438.4413	1893.8651	-450.0228	373.1151	907.1311	-77.7947	185.8807	928.8896	-163.6369	375.304	894.5317	-336.1514	187.4743	922.6926	-265.8047	292.2783	971.0112	-51.8454	290.5858	941.113	-376.0191	139.5585	1290.4612	-334.5993	167.8079	1198.9922	-367.176	198.4469	1352.7784	-443.2006
107	0.53	196.0778	1368.3495	-235.3121	332.6162	1325.3376	-204.9369	178.7628	1318.3166	-78.1896	208.9132	1322.1461	-37.7385	229.5202	1358.459	-56.1933	203.0156	1341.4984	-359.1803	237.8349	1376.3758	-373.1012	225.9865	1397.2539	-326.1903	406.5628	1134.8041	-198.8704	175.4067	1189.8915	-239.6632	293.6709	1142.729	-12.0897	233.7213	997.697	-42.6375	245.2625	1009.2131	22.2856	303.7322	856.6179	49.0923	356.12	795.1968	32.5168	308.38	786.462	49.4332	380.736	713.8388	47.4556	331.8108	708.8757	60.7949	316.6759	1476.2189	-352.8798	408.2697	1564.4994	-431.0002	362.6072	1589.8185	-439.2501	385.0805	1749.1124	-440.7241	395.4359	1822.3988	-423.616	431.4627	1817.751	-447.6711	399.2618	1896.9231	-431.6756	438.4212	1893.8516	-450.0952	373.1512	907.1188	-77.7959	185.8816	928.8723	-163.6379	375.3767	894.536	-336.1031	187.4828	922.6608	-265.825	292.2849	970.9736	-51.8124	290.6452	941.0895	-376.0009	139.6152	1290.5992	-334.6034	167.7998	1199.0093	-367.1235	198.4348	1352.7241	-443.2092
